<svg width="24" height="24" viewBox="0 0 24 24" fill="none" xmlns="http://www.w3.org/2000/svg">
<g id="apple-black-logo-svgrepo-com 1" clip-path="url(#clip0_1187_3169)">
<path id="Vector" d="M18.5496 12.7504C18.5833 16.3824 21.7358 17.5911 21.7707 17.6065C21.7441 17.6917 21.267 19.3288 20.1099 21.0199C19.1095 22.482 18.0714 23.9386 16.4359 23.9688C14.8289 23.9984 14.3122 23.0158 12.4749 23.0158C10.6382 23.0158 10.0641 23.9386 8.54289 23.9984C6.96426 24.0582 5.7621 22.4175 4.75352 20.9608C2.69252 17.9811 1.11749 12.5409 3.23236 8.86873C4.28298 7.0451 6.16052 5.8903 8.19842 5.86069C9.7486 5.83112 11.2117 6.9036 12.1594 6.9036C13.1065 6.9036 14.8845 5.61385 16.7538 5.80327C17.5363 5.83584 19.7329 6.11936 21.1433 8.18392C21.0296 8.25437 18.5224 9.71399 18.5496 12.7504ZM15.5294 3.83196C16.3676 2.81747 16.9316 1.4052 16.7778 0C15.5697 0.0485541 14.1089 0.805021 13.2423 1.81896C12.4658 2.71684 11.7857 4.15397 11.9692 5.53135C13.3157 5.63553 14.6913 4.8471 15.5294 3.83196Z" fill="black"/>
</g>
<defs>
<clipPath id="clip0_1187_3169">
<rect width="24" height="24" fill="white"/>
</clipPath>
</defs>
</svg>
