<svg width="20" height="18" viewBox="0 0 20 18" fill="none" xmlns="http://www.w3.org/2000/svg">
<path id="Vector" d="M13.952 11.5476L13.4464 12.0273C13.4464 12.0273 12.2431 13.1666 8.95978 10.0557C5.67647 6.94486 6.87979 5.80555 6.87979 5.80555L7.19757 5.50273C7.98312 4.75943 8.05756 3.56507 7.37201 2.69259L5.97202 0.910574C5.12314 -0.169435 3.48426 -0.312377 2.51205 0.608807L0.767613 2.26059C0.286505 2.718 -0.0357153 3.30883 0.00317331 3.9653C0.103173 5.64567 0.900945 9.25947 5.3498 13.4757C10.0687 17.9461 14.4964 18.124 16.3064 17.9631C16.8797 17.9122 17.3775 17.6348 17.7786 17.2536L19.3564 15.7586C20.423 14.7495 20.123 13.0183 18.7586 12.3121L16.6364 11.212C15.7408 10.7482 14.652 10.8848 13.952 11.5476Z" fill="#292929"/>
</svg>
