<svg width="80" height="80" viewBox="0 0 80 80" fill="none" xmlns="http://www.w3.org/2000/svg">
<g id="fluent-mdl2:news" clip-path="url(#clip0_968_5208)">
<g id="Group 319">
<path id="Vector" d="M80.0005 20V55C80.0005 56.3802 79.7401 57.6693 79.2192 58.8672C78.6984 60.0651 77.9823 61.1198 77.0708 62.0312C76.1593 62.9427 75.0916 63.6589 73.8677 64.1797C72.6437 64.7005 71.3547 64.974 70.0005 65H9.72705C8.39893 65 7.14893 64.7396 5.97705 64.2188C4.80518 63.6979 3.77653 63.0078 2.89111 62.1484C2.0057 61.2891 1.30257 60.2604 0.781738 59.0625C0.260905 57.8646 0.000488281 56.6016 0.000488281 55.2734V10H70.0005V20H80.0005ZM75.0005 25H70.0005V52.5C70.0005 53.1771 69.7531 53.763 69.2583 54.2578C68.7635 54.7526 68.1776 55 67.5005 55C66.8234 55 66.2375 54.7526 65.7427 54.2578C65.2479 53.763 65.0005 53.1771 65.0005 52.5V15H5.00049V55.2734C5.00049 55.9245 5.11768 56.5365 5.35205 57.1094C5.58643 57.6823 5.92497 58.1771 6.36768 58.5938C6.81038 59.0104 7.3182 59.349 7.89111 59.6094C8.46403 59.8698 9.07601 60 9.72705 60H70.0005C70.7036 60 71.3547 59.8698 71.9536 59.6094C72.5526 59.349 73.0734 58.9974 73.5161 58.5547C73.9588 58.112 74.3234 57.5781 74.6099 56.9531C74.8963 56.3281 75.0265 55.6771 75.0005 55V25ZM60.0005 25H10.0005V20H60.0005V25ZM60.0005 55H40.0005V50H60.0005V55ZM60.0005 45H40.0005V40H60.0005V45ZM60.0005 35H40.0005V30H60.0005V35ZM35.0005 55H10.0005V29.8828H35.0005V55ZM15.0005 50H30.0005V34.8828H15.0005V50Z" fill="#012A83"/>
<rect id="Rectangle 78" x="12.5005" y="32.5" width="20" height="20" stroke="#D30707" stroke-width="5"/>
<rect id="Rectangle 79" x="41.2505" y="31.25" width="17.5" height="2.5" stroke="#D30707" stroke-width="2.5"/>
<rect id="Rectangle 80" x="41.2505" y="51.25" width="17.5" height="2.5" stroke="#D30707" stroke-width="2.5"/>
</g>
</g>
<defs>
<clipPath id="clip0_968_5208">
<rect width="80" height="80" fill="white" transform="translate(0.000488281)"/>
</clipPath>
</defs>
</svg>
