<svg width="80" height="80" viewBox="0 0 80 80" fill="none" xmlns="http://www.w3.org/2000/svg">
<g id="ri:notification-2-line">
<g id="Group 325">
<path id="Vector" d="M73.3341 66.668H6.66748V60.0013H10.0008V36.7713C10.0008 20.1446 23.4341 6.66797 40.0008 6.66797C56.5675 6.66797 70.0008 20.1446 70.0008 36.7713V60.0013H73.3341V66.668ZM16.6675 60.0013H63.3341V36.7713C63.3341 23.828 52.8875 13.3346 40.0008 13.3346C27.1141 13.3346 16.6675 23.828 16.6675 36.7713V60.0013ZM31.6675 70.0013H48.3341C48.3341 72.2114 47.4562 74.3311 45.8934 75.8939C44.3306 77.4567 42.2109 78.3346 40.0008 78.3346C37.7907 78.3346 35.6711 77.4567 34.1083 75.8939C32.5455 74.3311 31.6675 72.2114 31.6675 70.0013Z" fill="#012A83"/>
<rect id="Rectangle 83" x="6.00049" y="60" width="68" height="6.7" fill="#D30707"/>
</g>
</g>
</svg>
