<svg width="20" height="19" viewBox="0 0 20 19" fill="none" xmlns="http://www.w3.org/2000/svg">
<g id="carbon:logo-twitter">
<path id="Vector" d="M7.5738 15.2903C12.9514 15.2903 15.8922 10.8354 15.8922 6.97183C15.8922 6.84536 15.8922 6.71949 15.8839 6.59421C16.4563 6.18016 16.9503 5.66746 17.3428 5.08015C16.8093 5.31685 16.2433 5.47216 15.6636 5.5409C16.2738 5.17532 16.7304 4.60056 16.9485 3.92352C16.3748 4.264 15.747 4.50396 15.0925 4.63305C14.6516 4.16431 14.0686 3.85392 13.4336 3.74991C12.7986 3.64591 12.147 3.75408 11.5797 4.05769C11.0123 4.3613 10.5609 4.84342 10.2952 5.42946C10.0294 6.0155 9.96425 6.67277 10.1097 7.29958C8.94739 7.24133 7.81031 6.93931 6.77227 6.41313C5.73423 5.88695 4.81844 5.14837 4.08434 4.24533C3.71057 4.889 3.59614 5.65091 3.76436 6.37597C3.93258 7.10103 4.3708 7.73472 4.9898 8.14805C4.52448 8.13416 4.06932 8.00851 3.66277 7.78171V7.81911C3.66296 8.49409 3.89659 9.14823 4.32405 9.6706C4.75151 10.193 5.34649 10.5514 6.00809 10.6851C5.5777 10.8024 5.12618 10.8194 4.68818 10.735C4.87497 11.316 5.23865 11.824 5.72836 12.1881C6.21807 12.5522 6.80932 12.7541 7.41943 12.7656C6.81321 13.2419 6.11906 13.5941 5.37666 13.8019C4.63426 14.0097 3.85817 14.0692 3.09277 13.9769C4.42963 14.8351 5.98521 15.2904 7.5738 15.2885" fill="black"/>
</g>
</svg>
