<svg width="20" height="19" viewBox="0 0 20 19" fill="none" xmlns="http://www.w3.org/2000/svg">
<g id="typcn:social-linkedin">
<path id="Vector" d="M6.61523 15.0417H4.24023V7.125H6.61523V15.0417ZM15.3236 15.0417H12.9486V10.8126C12.9486 9.71058 12.5559 9.16196 11.7777 9.16196C11.161 9.16196 10.7699 9.46912 10.5736 10.0842V15.0417H8.19857C8.19857 15.0417 8.23023 7.91667 8.19857 7.125H10.0732L10.2181 8.70833H10.2672C10.7541 7.91667 11.5323 7.37992 12.5994 7.37992C13.4109 7.37992 14.0672 7.60554 14.5683 8.17237C15.0726 8.74 15.3236 9.50158 15.3236 10.5711V15.0417Z" fill="black"/>
<path id="Vector_2" d="M5.42777 6.33325C6.10547 6.33325 6.65485 5.80159 6.65485 5.14575C6.65485 4.48991 6.10547 3.95825 5.42777 3.95825C4.75007 3.95825 4.20068 4.48991 4.20068 5.14575C4.20068 5.80159 4.75007 6.33325 5.42777 6.33325Z" fill="black"/>
</g>
</svg>
