<svg width="18" height="17" viewBox="0 0 18 17" fill="none" xmlns="http://www.w3.org/2000/svg">
<g id="basil:facebook-solid">
<path id="Vector" d="M10.7764 2.03638C9.90757 2.03638 9.0743 2.38153 8.45992 2.99591C7.84554 3.61028 7.50039 4.44356 7.50039 5.31242V7.13638H5.74727C5.65943 7.13638 5.58789 7.20721 5.58789 7.29575V9.70408C5.58789 9.79192 5.65872 9.86346 5.74727 9.86346H7.50039V14.8041C7.50039 14.8919 7.57122 14.9635 7.65977 14.9635H10.0681C10.1559 14.9635 10.2275 14.8926 10.2275 14.8041V9.86346H11.9962C12.0691 9.86346 12.1329 9.81388 12.1506 9.74304L12.7527 7.33471C12.7586 7.31121 12.7591 7.28667 12.7541 7.26295C12.7491 7.23923 12.7388 7.21697 12.7239 7.19784C12.709 7.17872 12.69 7.16324 12.6682 7.15259C12.6464 7.14194 12.6225 7.1364 12.5983 7.13638H10.2275V5.31242C10.2275 5.24033 10.2417 5.16894 10.2693 5.10234C10.2968 5.03574 10.3373 4.97522 10.3883 4.92425C10.4392 4.87327 10.4998 4.83283 10.5664 4.80525C10.633 4.77766 10.7043 4.76346 10.7764 4.76346H12.6181C12.7059 4.76346 12.7775 4.69263 12.7775 4.60409V2.19575C12.7775 2.10792 12.7066 2.03638 12.6181 2.03638H10.7764Z" fill="black"/>
</g>
</svg>
