<svg width="16" height="15" viewBox="0 0 16 15" fill="none" xmlns="http://www.w3.org/2000/svg">
<g id="mingcute:telegram-fill" clip-path="url(#clip0_410_974)">
<g id="Group">
<path id="Vector" fill-rule="evenodd" clip-rule="evenodd" d="M12.6424 2.76873C12.7968 2.70372 12.9659 2.6813 13.1319 2.7038C13.298 2.7263 13.455 2.7929 13.5866 2.89666C13.7182 3.00042 13.8195 3.13755 13.8801 3.29378C13.9407 3.45001 13.9583 3.61963 13.9311 3.78498L12.5136 12.3831C12.3761 13.2125 11.4661 13.6881 10.7055 13.275C10.0693 12.9294 9.12427 12.3969 8.27427 11.8412C7.84927 11.5631 6.54739 10.6725 6.70739 10.0387C6.84489 9.49685 9.03239 7.4606 10.2824 6.24998C10.773 5.77435 10.5493 5.49998 9.96989 5.93748C8.53052 7.02373 6.22114 8.6756 5.45739 9.1406C4.78364 9.5506 4.43239 9.6206 4.01239 9.5506C3.24614 9.4231 2.53552 9.2256 1.95552 8.98498C1.17177 8.65998 1.20989 7.58248 1.95489 7.26873L12.6424 2.76873Z" fill="black"/>
</g>
</g>
<defs>
<clipPath id="clip0_410_974">
<rect width="15" height="15" fill="white" transform="translate(0.281738)"/>
</clipPath>
</defs>
</svg>
