<svg width="17" height="16" viewBox="0 0 17 16" fill="none" xmlns="http://www.w3.org/2000/svg">
<g id="ph:instagram-logo-fill">
<path id="Vector" d="M11.2817 1.5H5.28174C4.35379 1.50099 3.46412 1.87006 2.80796 2.52622C2.1518 3.18238 1.78273 4.07205 1.78174 5V11C1.78273 11.928 2.1518 12.8176 2.80796 13.4738C3.46412 14.1299 4.35379 14.499 5.28174 14.5H11.2817C12.2097 14.499 13.0994 14.1299 13.7555 13.4738C14.4117 12.8176 14.7807 11.928 14.7817 11V5C14.7807 4.07205 14.4117 3.18238 13.7555 2.52622C13.0994 1.87006 12.2097 1.50099 11.2817 1.5ZM8.28174 11C7.68839 11 7.10838 10.8241 6.61503 10.4944C6.12168 10.1648 5.73716 9.69623 5.5101 9.14805C5.28304 8.59987 5.22363 7.99667 5.33938 7.41473C5.45514 6.83279 5.74086 6.29824 6.16042 5.87868C6.57998 5.45912 7.11452 5.1734 7.69647 5.05764C8.27841 4.94189 8.88161 5.0013 9.42979 5.22836C9.97797 5.45542 10.4465 5.83994 10.7761 6.33329C11.1058 6.82664 11.2817 7.40666 11.2817 8C11.2809 8.7954 10.9646 9.55798 10.4021 10.1204C9.83972 10.6828 9.07713 10.9992 8.28174 11ZM12.0317 5C11.8834 5 11.7384 4.95601 11.6151 4.8736C11.4917 4.79119 11.3956 4.67406 11.3388 4.53701C11.2821 4.39997 11.2672 4.24917 11.2961 4.10368C11.3251 3.9582 11.3965 3.82456 11.5014 3.71967C11.6063 3.61478 11.7399 3.54335 11.8854 3.51441C12.0309 3.48547 12.1817 3.50032 12.3188 3.55709C12.4558 3.61386 12.5729 3.70999 12.6553 3.83332C12.7378 3.95666 12.7817 4.10166 12.7817 4.25C12.7817 4.44891 12.7027 4.63968 12.5621 4.78033C12.4214 4.92098 12.2307 5 12.0317 5ZM10.2817 8C10.2817 8.39556 10.1644 8.78224 9.94468 9.11114C9.72491 9.44004 9.41256 9.69638 9.0471 9.84776C8.68165 9.99913 8.27952 10.0387 7.89156 9.96157C7.5036 9.8844 7.14723 9.69392 6.86752 9.41421C6.58782 9.13451 6.39734 8.77814 6.32017 8.39018C6.243 8.00222 6.2826 7.60009 6.43398 7.23463C6.58535 6.86918 6.8417 6.55682 7.1706 6.33706C7.4995 6.1173 7.88618 6 8.28174 6C8.81217 6 9.32088 6.21071 9.69595 6.58579C10.071 6.96086 10.2817 7.46957 10.2817 8Z" fill="black"/>
</g>
</svg>
