<svg width="32" height="33" viewBox="0 0 32 33" fill="none" xmlns="http://www.w3.org/2000/svg">
<g id="cil:low-vision">
<path id="Vector" d="M24.8262 9.19361L24.8126 9.17968C20.9568 5.32393 15.1825 4.52824 10.5342 6.79149L12.0475 8.3048C15.8267 6.76899 20.3287 7.5298 23.3918 10.5873L28.9999 16.4176V16.6117L24.7611 21.0186L26.1754 22.433L30.9999 17.4176V15.6117L24.8262 9.19361Z" fill="white"/>
<path id="Vector_2" d="M22.4369 18.6452C22.9723 17.4442 23.1308 16.1091 22.8914 14.8162C22.6521 13.5232 22.0262 12.3333 21.0965 11.4035C20.1667 10.4738 18.9768 9.84788 17.6838 9.60856C16.3909 9.36924 15.0558 9.52774 13.8548 10.0631L15.4229 11.6313C16.175 11.4455 16.9623 11.4571 17.7085 11.6649C18.4548 11.8728 19.1347 12.2698 19.6825 12.8175C20.2302 13.3653 20.6272 14.0452 20.8351 14.7915C21.0429 15.5377 21.0545 16.325 20.8687 17.0771L22.4369 18.6452ZM1 1.5V2.87125L7.24856 9.11987C7.22819 9.13994 7.20756 9.15963 7.18725 9.17988L1 15.6119V17.4177L7.17362 23.8358L7.18725 23.8496C9.28086 25.9378 12.0478 27.215 14.9952 27.4535C17.9425 27.692 20.8788 26.8765 23.281 25.1521L29.6287 31.5H31V30.0429L2.45706 1.5H1ZM5.12388 14.2097L6.18862 13.1028L18.3213 25.2354C17.6902 25.378 17.0473 25.462 16.4008 25.4866L5.12388 14.2097ZM3 16.6119V16.4177L3.73712 15.6514L13.2021 25.1163C11.465 24.6379 9.88203 23.7164 8.60831 22.4421L3 16.6119ZM20.4299 24.5158L7.57538 11.6611L8.60806 10.5875C8.62619 10.5694 8.64469 10.5521 8.66288 10.5341L21.8441 23.7154C21.3944 24.0187 20.9215 24.2863 20.4299 24.5158Z" fill="#F2F2F2"/>
</g>
</svg>
